<?xml version="1.0" encoding="utf-8"?>
<!-- Generator: Adobe Illustrator 18.0.0, SVG Export Plug-In . SVG Version: 6.00 Build 0)  -->
<!DOCTYPE svg PUBLIC "-//W3C//DTD SVG 1.1//EN" "http://www.w3.org/Graphics/SVG/1.1/DTD/svg11.dtd">
<svg version="1.1" id="Layer_1" xmlns="http://www.w3.org/2000/svg" xmlns:xlink="http://www.w3.org/1999/xlink" x="0px" y="0px"
	 viewBox="0 0 2048 2048" enable-background="new 0 0 2048 2048" xml:space="preserve">
<g>
	
		<linearGradient id="SVGID_1_" gradientUnits="userSpaceOnUse" x1="94.3" y1="1548" x2="905.8" y2="1548" gradientTransform="matrix(2.048 0 0 -2.048 0 4194.3042)">
		<stop  offset="0" style="stop-color:#006633"/>
		<stop  offset="1" style="stop-color:#009900"/>
	</linearGradient>
	<path fill="url(#SVGID_1_)" d="M1854.9,596h-555.6v75.2c76.8,0,140.1,10.4,190.3,31.3c50,20.9,99.3,63.1,147.7,126.4
		c58.4,81.7,87.7,174.3,87.7,277.7c0,38.5-1.2,65.9-3.7,82.5c-2.5,16.8-9.6,41.8-21.3,75.2c-11.7,33.4-23.3,60.4-35,81.3
		c-11.7,20.9-22.5,37.1-32.6,48.7c-63.5,81.7-134.3,122.7-212.8,122.7l-45.1-4.9v-345.3c103.4,3.3,158.5-31.7,165.3-105.1
		c-4.9-31.7-11.7-53.5-20.1-65.1c-30.1-45.1-82.5-67.6-157.7-67.6l-62.5,4.9v780.9l-277.9-42.6c-98.5-95-236.1-161.8-412.9-200.3
		c-10-1.6-42.6-5.7-97.7-12.5c-55.1-6.6-100.1-11.7-135.2-15V933.9l645.7-225.3V596H193.1V333.2h1662V596H1854.9z M1021.5,933.9
		L616,1166.5c26.6,10,55.9,20.5,87.7,31.3c31.7,10.9,62.5,24.6,92.6,41.4c125.1,63.5,200.3,131.9,225.3,205.2V933.9z"/>
</g>
</svg>
