<?xml version="1.0" encoding="utf-8"?>
<!-- Generator: Adobe Illustrator 18.0.0, SVG Export Plug-In . SVG Version: 6.00 Build 0)  -->
<!DOCTYPE svg PUBLIC "-//W3C//DTD SVG 1.1//EN" "http://www.w3.org/Graphics/SVG/1.1/DTD/svg11.dtd">
<svg version="1.1" id="Layer_1" xmlns="http://www.w3.org/2000/svg" xmlns:xlink="http://www.w3.org/1999/xlink" x="0px" y="0px"
	 viewBox="0 0 2048 2048" enable-background="new 0 0 2048 2048" xml:space="preserve">
<g>
	<g>
		
			<linearGradient id="SVGID_1_" gradientUnits="userSpaceOnUse" x1="298.639" y1="625.8542" x2="1570.0094" y2="625.8542" gradientTransform="matrix(2.048 0 0 2.048 0 0)">
			<stop  offset="0" style="stop-color:#006633"/>
			<stop  offset="1" style="stop-color:#009900"/>
		</linearGradient>
		<path fill="url(#SVGID_1_)" d="M1914.9,1018.4h-341.8v46.3c47.3,0,86.2,6.4,117.1,19.3c30.8,12.9,61.1,38.8,90.9,77.8
			c35.9,50.3,54,107.2,54,170.9c0,23.7-0.7,40.5-2.3,50.8c-1.5,10.3-5.9,25.7-13.1,46.3s-14.3,37.2-21.5,50
			c-7.2,12.9-13.8,22.8-20.1,30c-39.1,50.3-82.6,75.5-130.9,75.5l-27.7-3v-212.4c63.6,2,97.5-19.5,101.7-64.7
			c-3-19.5-7.2-32.9-12.4-40.1c-18.5-27.7-50.8-41.6-97-41.6l-38.5,3v480.5l-171-26.2c-60.6-58.4-145.3-99.5-254-123.2
			c-6.2-1-26.2-3.5-60.1-7.7c-33.9-4.1-61.6-7.2-83.2-9.2v-314.1l397.3-138.6v-69.3H892.5V856.7h1022.6v161.7H1914.9z
			 M1402.2,1226.3l-249.5,143.1c16.4,6.2,34.4,12.6,54,19.3c19.5,6.7,38.5,15.1,57,25.5c77,39.1,123.2,81.2,138.6,126.3
			L1402.2,1226.3L1402.2,1226.3z"/>
	</g>
	<g>
		<linearGradient id="SVGID_2_" gradientUnits="userSpaceOnUse" x1="136.1735" y1="482.4056" x2="1407.5439" y2="482.4056">
			<stop  offset="0" style="stop-color:#006633"/>
			<stop  offset="1" style="stop-color:#009900"/>
		</linearGradient>
		<rect x="132.9" y="341.2" fill="url(#SVGID_2_)" width="282.4" height="282.4"/>
		<linearGradient id="SVGID_3_" gradientUnits="userSpaceOnUse" x1="136.1735" y1="482.4056" x2="1407.5439" y2="482.4056">
			<stop  offset="0" style="stop-color:#006633"/>
			<stop  offset="1" style="stop-color:#009900"/>
		</linearGradient>
		<rect x="462.1" y="341.2" fill="url(#SVGID_3_)" width="282.4" height="282.4"/>
		<linearGradient id="SVGID_4_" gradientUnits="userSpaceOnUse" x1="136.1735" y1="482.4056" x2="1407.5439" y2="482.4056">
			<stop  offset="0" style="stop-color:#006633"/>
			<stop  offset="1" style="stop-color:#009900"/>
		</linearGradient>
		<rect x="791.2" y="341.2" fill="url(#SVGID_4_)" width="282.4" height="282.4"/>
		<linearGradient id="SVGID_5_" gradientUnits="userSpaceOnUse" x1="136.1735" y1="482.4056" x2="1407.5439" y2="482.4056">
			<stop  offset="0" style="stop-color:#006633"/>
			<stop  offset="1" style="stop-color:#009900"/>
		</linearGradient>
		<rect x="1119.5" y="341.2" fill="url(#SVGID_5_)" width="282.4" height="282.4"/>
		<linearGradient id="SVGID_6_" gradientUnits="userSpaceOnUse" x1="136.1735" y1="482.4056" x2="1407.5439" y2="482.4056">
			<stop  offset="0" style="stop-color:#006633"/>
			<stop  offset="1" style="stop-color:#009900"/>
		</linearGradient>
		<rect x="1448.6" y="341.2" fill="url(#SVGID_6_)" width="282.4" height="282.4"/>
		<linearGradient id="SVGID_7_" gradientUnits="userSpaceOnUse" x1="136.1735" y1="811.5505" x2="1407.5439" y2="811.5505">
			<stop  offset="0" style="stop-color:#006633"/>
			<stop  offset="1" style="stop-color:#009900"/>
		</linearGradient>
		<rect x="297.5" y="670.4" fill="url(#SVGID_7_)" width="282.4" height="282.4"/>
		<linearGradient id="SVGID_8_" gradientUnits="userSpaceOnUse" x1="136.1735" y1="811.5505" x2="1407.5439" y2="811.5505">
			<stop  offset="0" style="stop-color:#006633"/>
			<stop  offset="1" style="stop-color:#009900"/>
		</linearGradient>
		<polygon fill="url(#SVGID_8_)" points="909,821.6 909,670.4 626.7,670.4 626.7,952.7 857.4,952.7 857.4,821.6 		"/>
		<linearGradient id="SVGID_9_" gradientUnits="userSpaceOnUse" x1="136.1735" y1="746.0039" x2="1407.5439" y2="746.0039">
			<stop  offset="0" style="stop-color:#006633"/>
			<stop  offset="1" style="stop-color:#009900"/>
		</linearGradient>
		<rect x="955.8" y="670.4" fill="url(#SVGID_9_)" width="282.4" height="151.3"/>
		<linearGradient id="SVGID_10_" gradientUnits="userSpaceOnUse" x1="136.1735" y1="746.0039" x2="1407.5439" y2="746.0039">
			<stop  offset="0" style="stop-color:#006633"/>
			<stop  offset="1" style="stop-color:#009900"/>
		</linearGradient>
		<rect x="1284.1" y="670.4" fill="url(#SVGID_10_)" width="282.4" height="151.3"/>
		<linearGradient id="SVGID_11_" gradientUnits="userSpaceOnUse" x1="136.1735" y1="1145.3744" x2="1407.5439" y2="1145.3744">
			<stop  offset="0" style="stop-color:#006633"/>
			<stop  offset="1" style="stop-color:#009900"/>
		</linearGradient>
		<rect x="461.6" y="1004.2" fill="url(#SVGID_11_)" width="282.4" height="282.4"/>
		<linearGradient id="SVGID_12_" gradientUnits="userSpaceOnUse" x1="136.1735" y1="1145.3744" x2="1407.5439" y2="1145.3744">
			<stop  offset="0" style="stop-color:#006633"/>
			<stop  offset="1" style="stop-color:#009900"/>
		</linearGradient>
		<polygon fill="url(#SVGID_12_)" points="1073.1,1165.3 1073.1,1053.5 857.4,1053.5 857.4,1004.2 790.8,1004.2 790.8,1286.6 
			969.8,1286.6 969.8,1201.4 		"/>
		<linearGradient id="SVGID_13_" gradientUnits="userSpaceOnUse" x1="136.1735" y1="1101.2603" x2="1407.5439" y2="1101.2603">
			<stop  offset="0" style="stop-color:#006633"/>
			<stop  offset="1" style="stop-color:#009900"/>
		</linearGradient>
		<polygon fill="url(#SVGID_13_)" points="1367.1,1062.8 1367.1,1053.5 1119.9,1053.5 1119.9,1149 		"/>
	</g>
</g>
</svg>
