<?xml version="1.0" encoding="utf-8"?>
<!-- Generator: Adobe Illustrator 18.0.0, SVG Export Plug-In . SVG Version: 6.00 Build 0)  -->
<!DOCTYPE svg PUBLIC "-//W3C//DTD SVG 1.1//EN" "http://www.w3.org/Graphics/SVG/1.1/DTD/svg11.dtd">
<svg version="1.1" id="Layer_1" xmlns="http://www.w3.org/2000/svg" xmlns:xlink="http://www.w3.org/1999/xlink" x="0px" y="0px"
	 viewBox="0 0 2048 2048" enable-background="new 0 0 2048 2048" xml:space="preserve">
<g>
	<g>
		<path fill="none" d="M1166.2,1172.6c3.4-16,6.4-32.3,9.2-48.8h-65.8c-4.6,26.1-10,50.8-15.9,74.1L1166.2,1172.6z"/>
		<linearGradient id="SVGID_1_" gradientUnits="userSpaceOnUse" x1="-158.2317" y1="415.2505" x2="3076.731" y2="415.2505">
			<stop  offset="0" style="stop-color:#006633"/>
			<stop  offset="1" style="stop-color:#009900"/>
		</linearGradient>
		<path fill="url(#SVGID_1_)" d="M610.1,345.6c10.4-15.4,20.8-29.5,31-42.4c-112.6,34.2-211.9,98.8-288.5,184.3
			c44,12.1,101.9,26.7,167.3,39.7C543.4,460.6,573.7,399.6,610.1,345.6z"/>
		<linearGradient id="SVGID_2_" gradientUnits="userSpaceOnUse" x1="-158.2317" y1="710.6325" x2="3076.731" y2="710.6325">
			<stop  offset="0" style="stop-color:#006633"/>
			<stop  offset="1" style="stop-color:#009900"/>
		</linearGradient>
		<path fill="url(#SVGID_2_)" d="M500.4,589.4c-24.6-5-47.6-10-68.4-14.9c-49.3-11.5-91.5-22.9-123.4-32.1
			c-68.4,95.8-110.8,211.3-117.1,336.4h268.9C462.7,774.8,476.1,677.7,500.4,589.4z"/>
		<linearGradient id="SVGID_3_" gradientUnits="userSpaceOnUse" x1="-158.2317" y1="710.6325" x2="3076.731" y2="710.6325">
			<stop  offset="0" style="stop-color:#006633"/>
			<stop  offset="1" style="stop-color:#009900"/>
		</linearGradient>
		<path fill="url(#SVGID_3_)" d="M1151.6,589.4c24.4,88.3,37.8,185.4,40,289.4h268.9c-6.3-125.1-48.7-240.6-117.1-336.4
			c-31.9,9.2-74.1,20.7-123.4,32.1C1199.1,579.4,1176.1,584.5,1151.6,589.4z"/>
		<linearGradient id="SVGID_4_" gradientUnits="userSpaceOnUse" x1="-158.2317" y1="1407.1201" x2="3076.731" y2="1407.1201">
			<stop  offset="0" style="stop-color:#006633"/>
			<stop  offset="1" style="stop-color:#009900"/>
		</linearGradient>
		<path fill="url(#SVGID_4_)" d="M519.9,1295.1c-65.4,13-123.2,27.6-167.3,39.7c76.5,85.5,175.9,150.1,288.5,184.3
			c-10.2-12.9-20.6-27-31-42.4C573.7,1422.7,543.4,1361.8,519.9,1295.1z"/>
		<linearGradient id="SVGID_5_" gradientUnits="userSpaceOnUse" x1="-158.2317" y1="415.2642" x2="3076.731" y2="415.2642">
			<stop  offset="0" style="stop-color:#006633"/>
			<stop  offset="1" style="stop-color:#009900"/>
		</linearGradient>
		<path fill="url(#SVGID_5_)" d="M1132.1,527.3c65.4-13,123.2-27.6,167.3-39.7c-76.5-85.5-175.9-150.1-288.5-184.3
			c10.2,12.9,20.6,27,31,42.4C1078.3,399.7,1108.6,460.6,1132.1,527.3z"/>
		<linearGradient id="SVGID_6_" gradientUnits="userSpaceOnUse" x1="-158.2317" y1="418.9913" x2="3076.731" y2="418.9913">
			<stop  offset="0" style="stop-color:#006633"/>
			<stop  offset="1" style="stop-color:#009900"/>
		</linearGradient>
		<path fill="url(#SVGID_6_)" d="M826,562c81.7-0.7,164.9-10.1,241.4-22.9C1017.5,403,947.3,322,901.4,280.4
			c-24.7-2.9-49.9-4.4-75.4-4.4c-25.5,0-50.6,1.5-75.3,4.4c-25,22.7-57.3,56.9-89.3,105c-25.5,38.4-53.1,89.1-76.7,153.7
			C661.2,551.9,744.4,561.3,826,562z"/>
		<linearGradient id="SVGID_7_" gradientUnits="userSpaceOnUse" x1="-158.2317" y1="1111.7388" x2="3076.731" y2="1111.7388">
			<stop  offset="0" style="stop-color:#006633"/>
			<stop  offset="1" style="stop-color:#009900"/>
		</linearGradient>
		<path fill="url(#SVGID_7_)" d="M500.4,1232.9c-24.4-88.3-37.8-185.4-40-289.4H191.6c6.3,125.1,48.7,240.6,117.1,336.4
			c31.9-9.2,74.1-20.7,123.4-32.1C452.9,1242.9,475.8,1237.9,500.4,1232.9z"/>
		<linearGradient id="SVGID_8_" gradientUnits="userSpaceOnUse" x1="-158.2317" y1="1403.3799" x2="3076.731" y2="1403.3799">
			<stop  offset="0" style="stop-color:#006633"/>
			<stop  offset="1" style="stop-color:#009900"/>
		</linearGradient>
		<path fill="url(#SVGID_8_)" d="M826,1260.3c-81.6,0.7-164.9,10.1-241.4,23c49.9,136.1,120.2,217,166,258.7
			c24.7,2.9,49.9,4.4,75.4,4.4c25.5,0,50.6-1.5,75.3-4.4c1.6-1.5,3.3-3,5-4.6v-273.7C879.6,1261.8,852.7,1260.6,826,1260.3z"/>
		<linearGradient id="SVGID_9_" gradientUnits="userSpaceOnUse" x1="-158.2317" y1="1148.1794" x2="3076.731" y2="1148.1794">
			<stop  offset="0" style="stop-color:#006633"/>
			<stop  offset="1" style="stop-color:#009900"/>
		</linearGradient>
		<path fill="url(#SVGID_9_)" d="M1303.6,1124.7v-0.9h-128.3c-2.7,16.5-5.8,32.8-9.2,48.8L1303.6,1124.7z"/>
		<linearGradient id="SVGID_10_" gradientUnits="userSpaceOnUse" x1="-158.2317" y1="740.088" x2="3076.731" y2="740.088">
			<stop  offset="0" style="stop-color:#006633"/>
			<stop  offset="1" style="stop-color:#009900"/>
		</linearGradient>
		<path fill="url(#SVGID_10_)" d="M564.5,601.4c-21.6,76.2-36.9,168.1-39.4,277.5h601.6c-2.4-108.6-17.4-200.4-39.2-277.5
			c-77.1,13.2-164.5,23.8-251.3,25.3v0.2h-20.6v-0.2C729,625.1,641.6,614.6,564.5,601.4z"/>
		<linearGradient id="SVGID_11_" gradientUnits="userSpaceOnUse" x1="-158.2317" y1="1082.2833" x2="3076.731" y2="1082.2833">
			<stop  offset="0" style="stop-color:#006633"/>
			<stop  offset="1" style="stop-color:#009900"/>
		</linearGradient>
		<path fill="url(#SVGID_11_)" d="M1109.6,1123.8H793.8V943.5H525.2c2.4,108.6,17.4,200.4,39.2,277.5
			c77.1-13.2,164.5-23.8,251.3-25.3v-0.2h20.6v0.2c71.7,1.2,143.7,8.7,210.1,18.7l47.3-16.5
			C1099.6,1174.6,1105,1149.9,1109.6,1123.8z"/>
	</g>
	<g>
		
			<linearGradient id="SVGID_12_" gradientUnits="userSpaceOnUse" x1="269.9969" y1="1390.3282" x2="1541.3673" y2="1390.3282" gradientTransform="matrix(2.048 0 0 -2.048 0 4194.3042)">
			<stop  offset="0" style="stop-color:#006633"/>
			<stop  offset="1" style="stop-color:#009900"/>
		</linearGradient>
		<path fill="url(#SVGID_12_)" d="M1856.2,1083.5h-341.8v46.3c47.3,0,86.2,6.4,117.1,19.3c30.8,12.9,61.1,38.8,90.9,77.8
			c35.9,50.3,54,107.2,54,170.9c0,23.7-0.7,40.5-2.3,50.8c-1.5,10.3-5.9,25.7-13.1,46.3s-14.3,37.2-21.5,50
			c-7.2,12.9-13.8,22.8-20.1,30c-39.1,50.3-82.6,75.5-130.9,75.5l-27.7-3V1435c63.6,2,97.5-19.5,101.7-64.7
			c-3-19.5-7.2-32.9-12.4-40.1c-18.5-27.7-50.8-41.6-97-41.6l-38.5,3v480.5l-171-26.2c-60.6-58.4-145.3-99.5-254-123.2
			c-6.2-1-26.2-3.5-60.1-7.7c-33.9-4.1-61.6-7.2-83.2-9.2v-314.1l397.3-138.6v-69.3H833.8v-162h1022.6v161.7H1856.2z M1343.5,1291.4
			L1094,1434.5c16.4,6.2,34.4,12.6,54,19.3c19.5,6.7,38.5,15.1,57,25.5c77,39.1,123.2,81.2,138.6,126.3L1343.5,1291.4L1343.5,1291.4
			z"/>
	</g>
</g>
</svg>
