<?xml version="1.0" encoding="utf-8"?>
<!-- Generator: Adobe Illustrator 18.0.0, SVG Export Plug-In . SVG Version: 6.00 Build 0)  -->
<!DOCTYPE svg PUBLIC "-//W3C//DTD SVG 1.1//EN" "http://www.w3.org/Graphics/SVG/1.1/DTD/svg11.dtd">
<svg version="1.1" id="Layer_1" xmlns="http://www.w3.org/2000/svg" xmlns:xlink="http://www.w3.org/1999/xlink" x="0px" y="0px"
	 viewBox="0 0 1200 420" enable-background="new 0 0 1200 420" xml:space="preserve">
<rect x="-8.8" y="-6" fill="#005500" width="1217.5" height="432"/>
<rect x="358.6" y="94.5" fill="#FFFFFF" width="72.4" height="72.4"/>
<text transform="matrix(1 0 0 1 405.2632 154.324)" fill="#FF0000" font-family="'Hind Siliguri'" font-weight="bold" font-size="25.2913">ৰ</text>
<text transform="matrix(1 0 0 1 369.0919 138.7146)" fill="#666666" font-family="'Hind Siliguri'" font-weight="bold" font-size="25.2913">R</text>
<rect x="437.7" y="94.5" fill="#FFFFFF" width="72.4" height="72.4"/>
<text transform="matrix(1 0 0 1 448.1436 138.7146)" fill="#666666" font-family="'Hind Siliguri'" font-weight="bold" font-size="25.2913">T</text>
<rect x="676" y="94.5" fill="#FFFFFF" width="72.4" height="72.4"/>
<text transform="matrix(1 0 0 1 685.2969 138.7146)" fill="#666666" font-family="'Hind Siliguri'" font-weight="bold" font-size="25.2913">I</text>
<rect x="753.9" y="94.5" fill="#FFFFFF" width="72.4" height="72.4"/>
<text transform="matrix(1 0 0 1 712.8214 154.324)" fill="#FF0000" font-family="'Hind Siliguri'" font-weight="bold" font-size="25.2913">ৗ</text>
<text transform="matrix(1 0 0 1 764.3477 138.7146)" fill="#666666" font-family="'Hind Siliguri'" font-weight="bold" font-size="25.2913">O</text>
<rect x="516.7" y="94.5" fill="#FFFFFF" width="72.4" height="72.4"/>
<text transform="matrix(1 0 0 1 527.1954 138.7146)" fill="#666666" font-family="'Hind Siliguri'" font-weight="bold" font-size="25.2913">Y</text>
<rect x="595.8" y="94.5" fill="#FFFFFF" width="72.4" height="72.4"/>
<text transform="matrix(1 0 0 1 606.2442 138.7146)" fill="#666666" font-family="'Hind Siliguri'" font-weight="bold" font-size="25.2913">U</text>
<rect x="832.9" y="94.5" fill="#FFFFFF" width="72.4" height="72.4"/>
<text transform="matrix(1 0 0 1 843.3975 138.7146)" fill="#666666" font-family="'Hind Siliguri'" font-weight="bold" font-size="25.2913">P</text>
<rect x="912" y="94.5" fill="#FFFFFF" width="72.4" height="72.4"/>
<text transform="matrix(1 0 0 1 963.4503 122.5095)" fill="#AA0000" font-family="'Hind Siliguri'" font-weight="bold" font-size="25.2913">{</text>
<text transform="matrix(1 0 0 1 964.0577 154.324)" fill="#FF0000" font-family="'Hind Siliguri'" font-weight="bold" font-size="25.2913">[</text>
<text transform="matrix(1 0 0 1 922.4493 138.7146)"><tspan x="0" y="0" fill="#666666" font-family="'Hind Siliguri'" font-weight="bold" font-size="25.2913">[</tspan><tspan x="7.8" y="0" font-family="'Hind Siliguri'" font-weight="bold" font-size="25.2913"> </tspan></text>
<rect x="200.5" y="94.5" fill="#FFFFFF" width="72.4" height="72.4"/>
<text transform="matrix(1 0 0 1 239.9771 122.5095)" fill="#AA0000" font-family="'Hind Siliguri'" font-weight="bold" font-size="25.2913">ৠ</text>
<text transform="matrix(1 0 0 1 245.4376 154.324)" fill="#FF0000" font-family="'Hind Siliguri'" font-weight="bold" font-size="25.2913">ৄ</text>
<text transform="matrix(1 0 0 1 210.9913 138.7146)" fill="#666666" font-family="'Hind Siliguri'" font-weight="bold" font-size="25.2913">W</text>
<rect x="279.6" y="94.5" fill="#FFFFFF" width="72.4" height="72.4"/>
<text transform="matrix(1 0 0 1 290.0411 138.7146)" fill="#666666" font-family="'Hind Siliguri'" font-weight="bold" font-size="25.2913">E</text>
<rect x="991" y="94.5" fill="#FFFFFF" width="72.4" height="72.4"/>
<text transform="matrix(1 0 0 1 1042.5021 122.5095)" fill="#AA0000" font-family="'Hind Siliguri'" font-weight="bold" font-size="25.2913">}</text>
<text transform="matrix(1 0 0 1 1043.1095 154.324)" fill="#FF0000" font-family="'Hind Siliguri'" font-weight="bold" font-size="25.2913">]</text>
<text transform="matrix(1 0 0 1 1001.502 138.7146)"><tspan x="0" y="0" font-family="'Hind Siliguri'" font-weight="bold" font-size="25.2913"> </tspan><tspan x="5.7" y="0" fill="#666666" font-family="'Hind Siliguri'" font-weight="bold" font-size="25.2913">]</tspan></text>
<rect x="121.5" y="94.5" fill="#FFFFFF" width="72.4" height="72.4"/>
<text transform="matrix(1 0 0 1 131.9376 138.7146)" fill="#666666" font-family="'Hind Siliguri'" font-weight="bold" font-size="25.2913">Q</text>
<rect x="404" y="174.4" fill="#FFFFFF" width="72.4" height="72.4"/>
<text transform="matrix(1 0 0 1 414.5313 218.6116)" fill="#666666" font-family="'Hind Siliguri'" font-weight="bold" font-size="25.2913">F</text>
<rect x="483.1" y="174.4" fill="#FFFFFF" width="72.4" height="72.4"/>
<text transform="matrix(1 0 0 1 493.5831 218.6116)" fill="#666666" font-family="'Hind Siliguri'" font-weight="bold" font-size="25.2913">G</text>
<rect x="720.3" y="174.4" fill="#FFFFFF" width="72.4" height="72.4"/>
<text transform="matrix(1 0 0 1 764.8331 202.406)" fill="#AA0000" font-family="'Hind Siliguri'" font-weight="bold" font-size="25.2913">ঌ</text>
<text transform="matrix(1 0 0 1 765.1846 234.22)" fill="#FF0000" font-family="'Hind Siliguri'" font-weight="bold" font-size="25.2913">ৢ</text>
<text transform="matrix(1 0 0 1 730.7364 218.6116)" fill="#666666" font-family="'Hind Siliguri'" font-weight="bold" font-size="25.2913">K</text>
<rect x="799.3" y="174.4" fill="#FFFFFF" width="72.4" height="72.4"/>
<text transform="matrix(1 0 0 1 841.7344 202.406)" fill="#AA0000" font-family="'Hind Siliguri'" font-weight="bold" font-size="25.2913">ৡ</text>
<text transform="matrix(1 0 0 1 845.2354 234.22)" fill="#FF0000" font-family="'Hind Siliguri'" font-weight="bold" font-size="25.2913">ৣ</text>
<text transform="matrix(1 0 0 1 809.7862 218.6116)" fill="#666666" font-family="'Hind Siliguri'" font-weight="bold" font-size="25.2913">L</text>
<rect x="562.1" y="174.4" fill="#FFFFFF" width="72.4" height="72.4"/>
<text transform="matrix(1 0 0 1 610.5753 234.22)" fill="#FF0000" font-family="'Hind Siliguri'" font-weight="bold" font-size="25.2913">ঽ</text>
<text transform="matrix(1 0 0 1 572.6339 218.6116)" fill="#666666" font-family="'Hind Siliguri'" font-weight="bold" font-size="25.2913">H</text>
<rect x="641.2" y="174.4" fill="#FFFFFF" width="72.4" height="72.4"/>
<text transform="matrix(1 0 0 1 651.6846 218.6116)" fill="#666666" font-family="'Hind Siliguri'" font-weight="bold" font-size="25.2913">J</text>
<rect x="878.4" y="174.4" fill="#FFFFFF" width="72.4" height="72.4"/>
<text transform="matrix(1 0 0 1 888.8389 218.6116)" font-family="'Hind Siliguri'" font-weight="bold" font-size="25.2913"> </text>
<rect x="957.4" y="174.4" fill="#FFFFFF" width="72.4" height="72.4"/>
<text transform="matrix(1 0 0 1 1009.168 202.406)" fill="#005500" font-family="'Hind Siliguri'" font-weight="bold" font-size="25.2913">”</text>
<text transform="matrix(1 0 0 1 1009.1426 234.22)" fill="#FF0000" font-family="'Hind Siliguri'" font-weight="bold" font-size="25.2913">“</text>
<text transform="matrix(1 0 0 1 967.8897 218.6116)" font-family="'Hind Siliguri'" font-weight="bold" font-size="25.2913"> </text>
<rect x="245.9" y="174.4" fill="#FFFFFF" width="72.4" height="72.4"/>
<text transform="matrix(1 0 0 1 256.4297 218.6116)" fill="#666666" font-family="'Hind Siliguri'" font-weight="bold" font-size="25.2913">S</text>
<rect x="325" y="174.4" fill="#FFFFFF" width="72.4" height="72.4"/>
<text transform="matrix(1 0 0 1 335.4796 218.6116)" fill="#666666" font-family="'Hind Siliguri'" font-weight="bold" font-size="25.2913">D</text>
<rect x="166.9" y="174.4" fill="#FFFFFF" width="72.4" height="72.4"/>
<text transform="matrix(1 0 0 1 177.378 218.6116)" fill="#666666" font-family="'Hind Siliguri'" font-weight="bold" font-size="25.2913">A</text>
<rect x="444.9" y="254.3" fill="#FFFFFF" width="72.4" height="72.4"/>
<text transform="matrix(1 0 0 1 455.4161 298.509)" fill="#666666" font-family="'Hind Siliguri'" font-weight="bold" font-size="25.2913">V</text>
<rect x="524" y="254.3" fill="#FFFFFF" width="72.4" height="72.4"/>
<text transform="matrix(1 0 0 1 570.6373 314.1184)" fill="#FF0000" font-family="'Hind Siliguri'" font-weight="bold" font-size="25.2913">ৱ</text>
<text transform="matrix(1 0 0 1 534.4659 298.509)" fill="#666666" font-family="'Hind Siliguri'" font-weight="bold" font-size="25.2913">B</text>
<rect x="761.1" y="254.3" fill="#FFFFFF" width="72.4" height="72.4"/>
<text transform="matrix(1 0 0 1 807.7403 282.3039)" fill="#AA0000" font-family="'Hind Siliguri'" font-weight="bold" font-size="25.2913">&lt;</text>
<text transform="matrix(1 0 0 1 771.6192 298.509)" font-family="'Hind Siliguri'" font-weight="bold" font-size="25.2913"> </text>
<rect x="840.2" y="254.3" fill="#FFFFFF" width="72.4" height="72.4"/>
<text transform="matrix(1 0 0 1 886.7921 282.3039)" fill="#AA0000" font-family="'Hind Siliguri'" font-weight="bold" font-size="25.2913">&gt;</text>
<text transform="matrix(1 0 0 1 850.6719 298.509)" font-family="'Hind Siliguri'" font-weight="bold" font-size="25.2913"> </text>
<rect x="603" y="254.3" fill="#FFFFFF" width="72.4" height="72.4"/>
<text transform="matrix(1 0 0 1 613.5186 298.509)" fill="#666666" font-family="'Hind Siliguri'" font-weight="bold" font-size="25.2913">N</text>
<rect x="682.1" y="254.3" fill="#FFFFFF" width="72.4" height="72.4"/>
<text transform="matrix(1 0 0 1 692.5704 298.509)" fill="#666666" font-family="'Hind Siliguri'" font-weight="bold" font-size="25.2913">M</text>
<rect x="919.2" y="254.3" fill="#FFFFFF" width="72.4" height="72.4"/>
<text transform="matrix(1 0 0 1 929.7227 298.509)" font-family="'Hind Siliguri'" font-weight="bold" font-size="25.2913"> </text>
<rect x="286.8" y="254.3" fill="#FFFFFF" width="72.4" height="72.4"/>
<text transform="matrix(1 0 0 1 297.3135 298.509)" fill="#666666" font-family="'Hind Siliguri'" font-weight="bold" font-size="25.2913">X</text>
<rect x="365.9" y="254.3" fill="#FFFFFF" width="72.4" height="72.4"/>
<text transform="matrix(1 0 0 1 409.1226 314.1184)" fill="#FF0000" font-family="'Hind Siliguri'" font-weight="bold" font-size="25.2913">◌</text>
<text transform="matrix(1 0 0 1 376.3653 298.509)" fill="#666666" font-family="'Hind Siliguri'" font-weight="bold" font-size="25.2913">C</text>
<rect x="207.8" y="254.3" fill="#FFFFFF" width="72.4" height="72.4"/>
<text transform="matrix(1 0 0 1 218.2637 298.509)" fill="#666666" font-family="'Hind Siliguri'" font-weight="bold" font-size="25.2913">Z</text>
<rect x="336" y="14.6" fill="#FFFFFF" width="72.4" height="72.4"/>
<g>
	<text transform="matrix(1 0 0 1 380.1109 42.613)" fill="#AA0000" font-family="'Vrinda'" font-size="25.2913">৲</text>
</g>
<g>
	<text transform="matrix(1 0 0 1 389.9854 74.4294)" fill="#FF0000" font-family="'Hind Siliguri'" font-weight="bold" font-size="25.2913">৷</text>
</g>
<text transform="matrix(1 0 0 1 346.5303 58.82)" fill="#666666" font-family="'Hind Siliguri'" font-weight="bold" font-size="25.2913">4</text>
<rect x="415.1" y="14.6" fill="#FFFFFF" width="72.4" height="72.4"/>
<text transform="matrix(1 0 0 1 425.5811 58.82)" fill="#666666" font-family="'Hind Siliguri'" font-weight="bold" font-size="25.2913">5</text>
<rect x="652.3" y="14.6" fill="#FFFFFF" width="72.4" height="72.4"/>
<text transform="matrix(1 0 0 1 662.7335 58.82)" fill="#666666" font-family="'Hind Siliguri'" font-weight="bold" font-size="25.2913">8</text>
<rect x="731.3" y="14.6" fill="#FFFFFF" width="72.4" height="72.4"/>
<text transform="matrix(1 0 0 1 741.7852 58.82)" fill="#666666" font-family="'Hind Siliguri'" font-weight="bold" font-size="25.2913">9</text>
<rect x="494.1" y="14.6" fill="#FFFFFF" width="72.4" height="72.4"/>
<g>
	<text transform="matrix(1 0 0 1 541.2579 42.613)" fill="#AA0000" font-family="'Hind Siliguri'" font-weight="bold" font-size="25.2913">৺</text>
</g>
<g>
	<text transform="matrix(1 0 0 1 539.563 74.4294)" fill="#FF0000" font-family="'Hind Siliguri'" font-weight="bold" font-size="25.2913">০</text>
</g>
<text transform="matrix(1 0 0 1 504.6339 58.82)" fill="#666666" font-family="'Hind Siliguri'" font-weight="bold" font-size="25.2913">6</text>
<rect x="573.2" y="14.6" fill="#FFFFFF" width="72.4" height="72.4"/>
<g>
	<text transform="matrix(1 0 0 1 619.1446 74.4294)" fill="#FF0000" font-family="'Hind Siliguri'" font-weight="bold" font-size="25.2913">÷</text>
</g>
<text transform="matrix(1 0 0 1 583.6827 58.82)" fill="#666666" font-family="'Hind Siliguri'" font-weight="bold" font-size="25.2913">7</text>
<rect x="810.4" y="14.6" fill="#FFFFFF" width="72.4" height="72.4"/>
<text transform="matrix(1 0 0 1 820.836 58.82)" fill="#666666" font-family="'Hind Siliguri'" font-weight="bold" font-size="25.2913">0</text>
<rect x="889.4" y="14.6" fill="#FFFFFF" width="72.4" height="72.4"/>
<text transform="matrix(1 0 0 1 899.8878 58.82)" font-family="'Hind Siliguri'" font-weight="bold" font-size="25.2913"> </text>
<rect x="177.9" y="14.6" fill="#FFFFFF" width="72.4" height="72.4"/>
<g>
	<text transform="matrix(1 0 0 1 221.5128 74.4294)" fill="#FF0000" font-family="'Hind Siliguri'" font-weight="bold" font-size="25.2913">৵</text>
</g>
<text transform="matrix(1 0 0 1 188.4288 58.82)" fill="#666666" font-family="'Hind Siliguri'" font-weight="bold" font-size="25.2913">2</text>
<rect x="257" y="14.6" fill="#FFFFFF" width="72.4" height="72.4"/>
<g>
	<text transform="matrix(1 0 0 1 300.4869 74.4294)" fill="#FF0000" font-family="'Hind Siliguri'" font-weight="bold" font-size="25.2913">৶</text>
</g>
<text transform="matrix(1 0 0 1 267.4796 58.82)" fill="#666666" font-family="'Hind Siliguri'" font-weight="bold" font-size="25.2913">3</text>
<rect x="968.5" y="14.6" fill="#FFFFFF" width="72.4" height="72.4"/>
<g>
	<text transform="matrix(1 0 0 1 1014.4014 42.613)" fill="#AA0000" font-family="'Hind Siliguri'" font-weight="bold" font-size="25.2913">+</text>
</g>
<g>
	<text transform="matrix(1 0 0 1 1014.4024 74.4294)" fill="#FF0000" font-family="'Hind Siliguri'" font-weight="bold" font-size="25.29">=</text>
</g>
<text transform="matrix(1 0 0 1 978.9385 58.82)" font-family="'Hind Siliguri'" font-weight="bold" font-size="25.2913"> </text>
<text transform="matrix(1 0 0 1 1057.9913 58.82)" font-family="'Hind Siliguri'" font-weight="bold" font-size="25.2913"> </text>
<rect x="98.9" y="14.6" fill="#FFFFFF" width="72.4" height="72.4"/>
<g>
	<text transform="matrix(1 0 0 1 145.4464 42.613)" fill="#AA0000" font-family="'Hind Siliguri'" font-weight="bold" font-size="25.2913">৸</text>
</g>
<g>
	<text transform="matrix(1 0 0 1 146.4327 74.4294)" fill="#FF0000" font-family="'Hind Siliguri'" font-weight="bold" font-size="25.2913">৴</text>
</g>
<text transform="matrix(1 0 0 1 109.378 58.82)" fill="#666666" font-family="'Hind Siliguri'" font-weight="bold" font-size="25.2913">1</text>
<rect x="19.1" y="14.6" fill="#FFFFFF" width="72.4" height="72.4"/>
<g>
	<text transform="matrix(1 0 0 1 63.8546 42.613)" fill="#AA0000" font-family="'Hind Siliguri'" font-weight="bold" font-size="25.2913">~</text>
</g>
<g>
	<text transform="matrix(1 0 0 1 68.3565 74.4294)" fill="#FF0000" font-family="'Hind Siliguri'" font-weight="bold" font-size="25.2913">`</text>
</g>
<text transform="matrix(1 0 0 1 29.5577 58.82)" font-family="'Hind Siliguri'" font-weight="bold" font-size="25.2913"> </text>
<g>
	<rect x="19.1" y="94.5" fill="#FFFFFF" width="95.2" height="72.4"/>
	<text transform="matrix(1 0 0 1 49.8106 138.6433)" fill="#999999" font-family="'Hind Siliguri'" font-weight="bold" font-size="21.8186">Tab</text>
</g>
<g>
	<rect x="19.1" y="174.4" fill="#FFFFFF" width="140.3" height="72.4"/>
	<text transform="matrix(1 0 0 1 42.4122 218.5412)" fill="#999999" font-family="'Hind Siliguri'" font-weight="bold" font-size="21.8186">Caps Lock</text>
</g>
<g>
	<rect x="19.1" y="254.3" fill="#FFFFFF" width="181.5" height="72.4"/>
	<text transform="matrix(1 0 0 1 88.045 298.4377)" fill="#999999" font-family="'Hind Siliguri'" font-weight="bold" font-size="21.8186">Shift</text>
</g>
<g>
	<rect x="999.5" y="254.4" fill="#FFFFFF" width="181.5" height="72.4"/>
	<text transform="matrix(1 0 0 1 1068.4269 298.5207)" fill="#999999" font-family="'Hind Siliguri'" font-weight="bold" font-size="21.8186">Shift</text>
</g>
<g>
	<rect x="1038.5" y="174.5" fill="#FFFFFF" width="142.5" height="72.4"/>
	<text transform="matrix(1 0 0 1 1085.0665 218.6252)" fill="#999999" font-family="'Hind Siliguri'" font-weight="bold" font-size="21.8186">Enter</text>
</g>
<g>
	<rect x="1071.1" y="94.5" fill="#FFFFFF" width="109.8" height="72.4"/>
	<g>
		<text transform="matrix(1 0 0 1 1162.712 122.5095)" fill="#005500" font-family="'Hind Siliguri'" font-weight="bold" font-size="25.2913">|</text>
	</g>
	<g>
		<text transform="matrix(1 0 0 1 1154.4171 154.324)" fill="#FF0000" font-family="'Hind Siliguri'" font-weight="bold" font-size="25.2913">॥</text>
	</g>
	<text transform="matrix(1 0 0 1 1081.5753 138.7146)" fill="#666666" font-family="'Hind Siliguri'" font-weight="bold" font-size="25.2913">\</text>
</g>
<g>
	<rect x="1048.2" y="14.7" fill="#FFFFFF" width="132.8" height="72.4"/>
	<text transform="matrix(1 0 0 1 1065.6896 58.8318)" fill="#999999" font-family="'Hind Siliguri'" font-weight="bold" font-size="21.8186">Backspace</text>
</g>
<g>
	<rect x="19.1" y="333" fill="#FFFFFF" width="101.2" height="72.4"/>
	<text transform="matrix(1 0 0 1 52.6177 377.0959)" fill="#999999" font-family="'Hind Siliguri'" font-weight="bold" font-size="21.8186">Ctrl</text>
</g>
<g>
	<rect x="127" y="333" fill="#FFFFFF" width="101.2" height="72.4"/>
</g>
<g>
	<rect x="234.9" y="333" fill="#FFFFFF" width="101.2" height="72.4"/>
	<text transform="matrix(1 0 0 1 270.9581 377.0959)" fill="#999999" font-family="'Hind Siliguri'" font-weight="bold" font-size="21.8186">Alt</text>
</g>
<g>
	<rect x="342.5" y="333" fill="#FFFFFF" width="406" height="72.4"/>
	<text transform="matrix(1 0 0 1 517.147 377.0959)" fill="#999999" font-family="'Hind Siliguri'" font-weight="bold" font-size="21.8186">Space</text>
</g>
<g>
	<rect x="755.4" y="333" fill="#FFFFFF" width="101.2" height="72.4"/>
	<text transform="matrix(1 0 0 1 792.1133 377.0959)" fill="#999999" font-family="'Hind Siliguri'" font-weight="bold" font-size="21.8186">Alt</text>
</g>
<g>
	<rect x="863.5" y="333" fill="#FFFFFF" width="101.2" height="72.4"/>
</g>
<g>
	<rect x="971.6" y="333" fill="#FFFFFF" width="101.2" height="72.4"/>
</g>
<g>
	<rect x="1079.8" y="333" fill="#FFFFFF" width="101.2" height="72.4"/>
	<text transform="matrix(1 0 0 1 1113.3038 377.0959)" fill="#999999" font-family="'Hind Siliguri'" font-weight="bold" font-size="21.8186">Ctrl</text>
</g>
<g>
	<text transform="matrix(1 0 0 1 936.5468 41.6326)" fill="#AA0000" font-family="'Hind Siliguri'" font-weight="bold" font-size="25.2913">_</text>
</g>
</svg>
