<?xml version="1.0" encoding="utf-8"?>
<!-- Generator: Adobe Illustrator 18.0.0, SVG Export Plug-In . SVG Version: 6.00 Build 0)  -->
<!DOCTYPE svg PUBLIC "-//W3C//DTD SVG 1.1//EN" "http://www.w3.org/Graphics/SVG/1.1/DTD/svg11.dtd">
<svg version="1.1" id="Layer_1" xmlns="http://www.w3.org/2000/svg" xmlns:xlink="http://www.w3.org/1999/xlink" x="0px" y="0px"
	 viewBox="0 0 2048 2048" enable-background="new 0 0 2048 2048" xml:space="preserve">
<linearGradient id="SVGID_1_" gradientUnits="userSpaceOnUse" x1="14.5494" y1="1427.4973" x2="1676.3499" y2="1427.4973">
	<stop  offset="0" style="stop-color:#005100"/>
	<stop  offset="0.9947" style="stop-color:#009900"/>
</linearGradient>
<path opacity="0.5" fill="url(#SVGID_1_)" enable-background="new    " d="M186.2,1015.8c-123.9,94.4-204,233.3-158.9,388.5
	c51.2,175.9,172.2,332,321.1,436.8c166.1,116.9,344.5,145.2,541.9,112.4c292-48.3,635.5-125.5,756.9-435.8
	c60-153.2,37.7-439.1-165.3-474.3c-159.3-27.6-319.1,50.2-477.8-2c-136.2-44.9-265.8-132.3-412.5-149.7
	C449.5,874.9,298.4,930.4,186.2,1015.8z"/>
<g>
	
		<linearGradient id="SVGID_2_" gradientUnits="userSpaceOnUse" x1="239.9" y1="1508.3" x2="827.5" y2="1508.3" gradientTransform="matrix(2.048 0 0 -2.048 0 4194.3042)">
		<stop  offset="0" style="stop-color:#FF3333"/>
		<stop  offset="1" style="stop-color:#CC0000"/>
	</linearGradient>
	<path fill="url(#SVGID_2_)" d="M1694.7,686.9h-163v924.5l-29.7-18.8v1.6c-39.7-152.4-111.4-262.6-214.8-330.5
		c-22.9,37.7-54.7,66.8-94.8,87.7c-40.1,20.9-87,31.3-140.3,31.3c-29.3,0-59-6.3-89.3-18.8c-30.3-12.5-60.4-30.3-90.1-53.2
		c-29.7-22.9-58.2-50.6-85.4-83.1c-27.2-32.4-52.8-68-76.8-106.5c-28.3-48.1-51.2-105.1-69-170.8s-30.9-136.4-39.1-211.6l53.2,21.9
		c14.5,72.1,34.4,137.4,59.6,195.8c25,58.6,54.3,109,87.7,151.1c33.4,42.4,70,75.2,109.8,98.7s80.5,35.2,122.3,35.2
		c102.4,0,170.8-30.3,205.2-90.9c22.9-42.8,34.4-85.2,34.4-127c0-14.5-1.6-30.3-4.7-47.1c-7.4-26-18-49.6-32.2-70.5
		c-14.1-20.9-26.8-36.5-38.3-47.1c-19.9-15.8-38.1-25-54.9-28.3c-16.8-3.1-34-1-51.6,6.3c18.8,25,28.3,48.5,28.3,70.5
		c0,18.8-5.5,37.1-16.4,54.9c-11.1,17.8-25.8,33-44.6,45.5c-29.3,22.9-64.3,31.3-105.1,25c-38.7-7.4-69-26.6-90.9-58
		c-10.4-19.9-15.8-41.2-15.8-64.3c0-25,6.3-48.7,18.8-71.3s28.3-41,47.1-55.7c50.2-34.4,99.3-51.6,147.3-51.6
		c22.9,0,46.5,3.7,70.5,11.1c33.4,11.5,65.5,28.7,96.5,51.6c30.7,22.9,57.1,52.2,79.1,87.7c27.2,49.2,40.8,104.4,40.8,166.1
		c0,43.8-6.3,89.3-18.8,136.4l114.5,103.4V686.9H579l-87.7-87.7h1115.8L1694.7,686.9z"/>
</g>
<g>
	
		<linearGradient id="SVGID_3_" gradientUnits="userSpaceOnUse" x1="145.3" y1="1201.85" x2="429.7" y2="1201.85" gradientTransform="matrix(2.048 0 0 -2.048 0 4194.3042)">
		<stop  offset="0" style="stop-color:#0AAA00"/>
		<stop  offset="1" style="stop-color:#8CC800"/>
	</linearGradient>
	<path fill="url(#SVGID_3_)" d="M769.6,1477.6v564.2l-29.7-35.4c-1.8-5.7-4.3-11.7-7.2-17.8c-2.9-6.1-8.4-16.8-16.4-32.2
		c-8-15.4-19.5-32.2-34-50.4c-14.7-18.2-28.5-33.4-41.2-45.7c-46.1-42.2-107.1-67.2-183.3-74.8l-70-99.7
		c107.5-74.8,217.5-131.1,330.1-169v-39.3H350.4l-52.8-53.7h530.6l51.8,53.7H769.6z M717.8,1604.2c-34.6,12.9-69.6,28.1-105.1,46.1
		c-35.4,17.8-72.7,39.9-111.8,66.2c96.7,40.3,168.8,101.8,216.9,184.1V1604.2z"/>
</g>
<g>
	<path fill="#FFFFFF" d="M1318.1,1554.2v339.1l-33.2-30.9v-183.7c0-11.5-4.1-21.5-12.3-30.1c-8.2-8.6-18-12.9-29.5-12.9
		c-18.4,0-27.4,11.1-27.4,33.4c0,4.9,1,11.7,2.9,20.1l-13.1,5.1c-3.1-17.2-11.7-31.3-25.8-42.4c-13.7-11.1-29.9-16.6-48.1-16.6
		c-8,0-15.8,1.6-22.9,4.9c-7.2,3.3-13.7,7.6-19.3,12.9c-5.5,5.3-10,11.7-13.1,19.3c-3.3,7.4-4.9,15.2-4.9,23.1
		c0,26,15.6,41.4,46.5,45.9c-7-10.2-10.2-19.3-10.2-27c0-9.2,3.7-17.2,11.3-24.4c7.4-7.2,15.8-10.6,25-10.6
		c29.5,1.8,44.2,17.8,44.2,47.7c-0.4,12.7-4.9,22.9-13.7,30.9c-8.8,8-21.7,12.7-38.5,13.7c-13.7,0-26.4-2.3-37.9-6.6
		s-21.3-10.6-29.5-18.6s-14.5-17.6-19.3-28.9c-4.5-11.3-7-23.8-7-37.7c0-22.1,6.1-42.6,18.4-61.4c13.7-20.7,31.3-30.9,52.8-30.9
		c27.4,0,52.2,14.1,73.9,42.4c0-10,4.3-19,13.1-27.4c8.8-8.8,17.6-13.1,26.4-13.1c26.8,0,46.7,17.8,59.6,53.5v-88.3h-263.4
		l-33.4-32.6h355.1l32.8,32.2L1318.1,1554.2L1318.1,1554.2z"/>
</g>
<g>
	
		<linearGradient id="SVGID_4_" gradientUnits="userSpaceOnUse" x1="746.2" y1="1849.4" x2="965.9" y2="1849.4" gradientTransform="matrix(2.048 0 0 -2.048 0 4194.3042)">
		<stop  offset="0" style="stop-color:#D2FF00"/>
		<stop  offset="1" style="stop-color:#A0FF00"/>
	</linearGradient>
	<path fill="url(#SVGID_4_)" d="M1905.9,245.4V691l-45.9-44.2l6.1-228.1c0-6.6-1.4-13.9-4.5-21.7s-7.4-16.4-12.9-25.6
		c-5.5-8.6-11.3-16-16.8-22.1c-5.5-6.1-10.9-11.3-16-15.4L1665.6,485l-61-22.1c29.5-28.1,44.2-50.2,44.2-66.4
		c0-29.5-8.6-44.2-26-44.2c-4.1,0-8.4,0.8-12.9,2.3c-4.5,1.4-10.4,3.5-17.6,6.1c-12.7,5.5-22.9,8.4-30.5,8.4
		c-8.6,0-16.4-3.5-23.3-10.6s-10.2-15-10.2-23.6c0-15.4,5.5-30.5,16.4-45.9c10.9-15.4,26.4-29.5,46.1-42.8
		c18.2-11.7,36.7-20.7,54.9-26.6c18.2-6.1,35.6-9.2,51.8-9.2c62.5,0,120.8,46.1,174.7,138l1.4-0.8c-1.4-37.1-3.3-74.5-5.3-112.2
		c-2-37.7-3.9-75.4-5.3-112.8l19,16c2.5,22.9,4.9,37.7,7,44.2c6.1,14.3,17,21.3,32.8,21.3c4.1,0,8.6-0.4,13.7-1.4l42.8,42.8
		C1978.2,245.4,1905.9,245.4,1905.9,245.4z M1779.1,289c-19.9-21.9-42.2-32.8-67.2-32.8c-47.3,0-80.7,19.3-99.9,58
		c22.9,0,39.5,7.6,50,22.9c10.4,15.4,14.3,34.4,11.9,57.1L1779.1,289z"/>
</g>
<g>
	
		<linearGradient id="SVGID_5_" gradientUnits="userSpaceOnUse" x1="785.2" y1="1193.4501" x2="939.4" y2="1193.4501" gradientTransform="matrix(2.048 0 0 -2.048 0 4194.3042)">
		<stop  offset="0" style="stop-color:#0AAA00"/>
		<stop  offset="1" style="stop-color:#8CC800"/>
	</linearGradient>
	<path fill="url(#SVGID_5_)" d="M1923.9,1611h-202.1c-2.3,32.4,25.4,57.3,83.1,75c56.7,18,84.2,40.3,82.5,66.8
		c0,32.4-15.2,68.2-45.7,107.3c-31.7,41.4-63.7,62.1-96.1,62.1c-11.7,0-24-7-36.9-21.1c-12.1-14.7-18.2-28.7-18.2-41.6V1611h-50.4
		l-32.2-32.8h282.2L1923.9,1611z M1834.8,1750.4c-52-16.4-89.3-44.2-112-83.1V1859c0,12.9,4.9,19.3,14.7,19.3
		c18.4,0,39.5-14.3,63.3-42.8c24.2-28.5,36.2-52,36.2-70.2C1837.1,1756,1836.2,1751.2,1834.8,1750.4z"/>
</g>
<g>
	<path fill="#FFFFFF" d="M1398.2,137.8h-213.6c-6.1,0.4-12.5,3.3-19,8.4c-6.6,5.1-10,10.4-11.1,15.8c0,6.1,2.5,11.7,7.6,16
		c5.1,4.5,11.3,8.4,18.4,11.7s14.3,5.9,21.7,7.6c7.4,1.8,13.1,2.7,17,2.7c20.5,1.8,38.7,1,54.7-2.3c16-3.3,29.3-8,40.1-13.7
		l56.7,59.4c-20.5,20.1-36,44.6-46.7,74.1c-10.6,29.3-16,63.3-16,101.4c0,28.9,9.6,64.5,28.7,106.9l-36.7-10
		c-8.8-25.4-16-50.6-21.3-75.4c-5.3-25-8.2-51.4-8.6-79.5c0-36.5,8-74.5,24-114.1c-39.5,0-71.7-4.9-96.1-14.7
		c-25.8-10.2-50.4-30.3-73.5-60l-3.3-1.4c-6.1,0-12.7,3.1-19.5,9.4c-6.8,6.1-13.5,15.2-20.7,26.6c-14.7,23.6-22.1,41.8-22.1,54.7
		c0,18.2,9.8,27.4,29.3,27.4c4.5,0,10.2-1,17.4-3.3c7.2-2.3,15.2-5.5,24-10l41.4-21.3c16,7.2,30.3,21.5,42.8,43.4
		c6.1,11.7,11.1,22.7,14.7,33.4c3.5,10.6,5.3,20.5,5.3,29.3c0,27.6-10.4,52.2-31.3,74.1c-20.5,20.5-45.1,30.7-73.5,30.7
		c-64.5,0-111-35-139.5-104.9c-10.2-25.4-17.8-53.5-22.9-84.4s-7.6-65.7-7.6-104.4l19.5,12.1c-1.4,10.6-1.4,23.8,0,39.3
		c4.5,44,16,80.7,34.6,110.2c13.3,22.3,28.7,39.3,45.7,51.4c17.2,12.1,36.2,18,57.1,18c19,0,37.9-4.3,56.1-12.7
		c24-10.6,36-24.4,36-41.4c0-6.8-1.8-13.7-5.7-21.1c-3.7-7.4-9.2-11.1-16.4-11.1c-2.7,0-12.7,3.1-30.1,9.4
		c-15.6,6.1-28.9,9.4-40.1,9.4c-25,0-45.7-10-62.1-30.1c-17-19.7-25.4-42.2-25.4-68c0-15.2,5.7-32.8,17.4-52.8
		c12.5-20.5,25.6-35.8,39.3-46.1H920.8l-37.5-37.5h478L1398.2,137.8z"/>
</g>
<g>
	
		<linearGradient id="SVGID_6_" gradientUnits="userSpaceOnUse" x1="143.4" y1="1483.5" x2="264.2" y2="1483.5" gradientTransform="matrix(2.048 0 0 -2.048 0 4194.3042)">
		<stop  offset="0" style="stop-color:#D2FF00"/>
		<stop  offset="1" style="stop-color:#A0FF00"/>
	</linearGradient>
	<path fill="url(#SVGID_6_)" d="M541.1,1207.1c0,23.8-7,42.4-21.1,55.5c-14.1,13.1-33,19.7-56.7,19.7c-71.5,0-128-76-169.6-228.1
		l20.1,7.4c7.4,26.8,15.8,50.2,25.2,69.6c9.4,19.5,17.8,34.6,24.8,45.5c14.1,21.3,29.3,37.7,45.9,48.7c16.6,11.1,34,16.8,52.6,16.8
		c7.6,0,15-1.2,22.3-3.5c7.2-2.3,13.5-5.5,19-9.6c5.5-4.1,9.8-9.2,13.1-15.4c3.3-6.1,4.9-12.9,4.9-20.1c0-9.4-5.5-18.2-16.6-26.2
		c-7,7.4-15.2,11.1-24.4,11.1c-8.8,0-16.4-3.1-22.7-9c-6.3-5.9-9.4-13.3-9.4-22.3c0-8.8,2.9-16.8,8.8-23.6
		c5.7-7,13.1-10.2,21.9-10.2c7.4,0,14.5,2,21.5,5.9c13.1-5.7,19.7-16.6,19.7-32.6c0-20.7-11.1-31.1-33-31.1
		c-7.6,0-15.2,0.8-22.3,2.5c-7.2,1.6-14.3,4.3-21.3,7.6c-15,7.6-26.2,17.8-33.4,30.3c11.1,7.4,16.6,15.4,16.6,24.4
		c0,19.9-8.8,29.7-26.6,29.7c-24.2,0-36.2-12.9-36.2-38.5c0-11.7,3.3-22.5,9.8-32.8c6.6-10.2,16-19.3,28.3-27.2
		c22.3-14.3,46.1-21.5,71.5-21.5c8.6,0,16.8,1.2,24.6,3.9s14.7,6.3,20.7,11.3c5.9,4.9,10.6,10.9,13.9,17.6c3.3,7,5.1,14.5,5.1,23.1
		c0,29.3-7,51.8-20.7,67.4C533.1,1172.9,541.1,1190.9,541.1,1207.1z"/>
</g>
<g>
	
		<linearGradient id="SVGID_7_" gradientUnits="userSpaceOnUse" x1="847.7" y1="1370.4" x2="980.5" y2="1370.4" gradientTransform="matrix(2.048 0 0 -2.048 0 4194.3042)">
		<stop  offset="0" style="stop-color:#CCFF97"/>
		<stop  offset="1" style="stop-color:#8DFF51"/>
	</linearGradient>
	<path fill="url(#SVGID_7_)" d="M2008.1,1558.3c0,8.8-0.6,17.6-1.8,26.2l-27-8.2c5.3-6.8,8.2-14.7,8.2-24.4c0-13.3-5.7-25.8-17-37.7
		c-11.3-11.7-27.6-22.9-48.9-33.8c-20.5-10-40.8-19.5-61-28.3c-20.3-8.8-40.1-19-59.8-30.7c-43-29.7-64.5-66.8-64.5-111.6
		c0-33,11.5-61,34.4-84c23.3-23.3,51.8-35,85.2-35c12.9,0,25.2,2,36.7,6.3c11.5,4.1,21.3,10,29.7,17.8c8.4,7.8,15,17,20.1,27.6
		c4.9,10.6,7.6,22.5,7.6,35.4c0,20.5-5.9,36.9-17.8,49.6c-11.9,12.5-27.9,18.8-47.9,18.8c-48.5-0.4-78.6-30.1-90.9-88.9
		c-15.4,6.3-23.8,20.9-25,43.8c0,31.3,20.9,59,62.7,82.7c19.7,10.4,38.9,20.3,58,29.5c19,9.2,38.3,19.9,58,31.9
		C1987.6,1475.6,2008.1,1513.3,2008.1,1558.3z M1919.6,1267.7c-4.5-25-27.9-35.4-69.6-31.3c-12.5,1.6-22.5,4.7-30.1,9.4
		c0,18.4,6.8,34.2,20.1,47.7c12.5,10.9,25,15.4,37.7,13.7c12.1-1.6,22.5-6.1,30.9-13.1C1917.1,1287,1920.8,1278.2,1919.6,1267.7z"/>
</g>
<g>
	<path fill="#FFFFFF" d="M43.8,513.6L8.2,478.4h391.6l36.2,35H43.8V513.6z M407.1,672.2c0,21.3-2.9,40.8-8.8,58.6s-14.7,34-27,48.5
		c-25.8,31.3-59.6,46.9-101,46.9c-57.5,0-106.3-33.6-146-101c-9.6-15.8-20.3-38.7-31.9-68.6S68,590.8,54.1,549.1l21.3,7
		c8.4,27.6,18.6,53.7,30.9,78c12.3,24.4,24.8,45.5,37.3,62.9c18.4,22.5,38.9,39.9,61.4,52.2c22.5,12.3,46.5,18.4,72.1,18.4
		c25.8,0,48.3-9.2,67-27.6c19.3-18.4,28.9-40.8,28.9-67c0-34.6-5.5-52-16.4-52c-31.7,38.5-69.6,57.5-113.5,57.5
		c-21.7,0-40.3-6.8-55.7-20.1c-17.2-13.3-25.6-31.1-25.6-53.2c0-37.3,19.3-55.7,57.5-55.7c12.1,0,22.7,4.1,31.5,12.3
		c9,8.2,13.5,18.2,13.5,30.3c0,10.4-5.3,22.7-15.6,37.1c15.8,0.4,32.8-8.6,50.8-27c7.2-8,13.3-16,18.4-24.4s10.4-17,16-25.6
		c8.4,0.8,17,5.1,25.6,12.9c8.8,7.8,17.6,18.8,26.2,33.6C400.4,626.9,407.1,651.3,407.1,672.2z"/>
</g>
<g>
	<path fill="#FFFFFF" d="M1766.6,853c12.9,9.6,25,20.1,36.2,31.5c11.3,11.5,21.1,23.1,29.5,35l-59.8,49.6
		c37.3,12.3,65.9,35.4,85.8,69.4V872.7c1-0.2,2.9-0.4,5.3-0.6c2.5-0.2,4.9-0.4,7.4-0.6c2.5-0.2,4.9-0.4,7-0.6c2-0.2,3.5-0.2,4.5-0.2
		c21.5-0.2,40.8,6.3,57.1,19.9c18,14.5,27,34.6,27,60.2c0,28.3-13.7,42.6-41.2,42.6c-7,0-13.3-2.7-18.6-8.2
		c-5.5-5.5-8.2-11.9-8.2-19.3c0-7,2.5-12.9,7.6-17.4c5.1-4.7,10.9-7,17.6-7c9.6,0,17.4,3.5,23.6,10.4l2.5-7.2
		c0-25.6-19.5-38.3-58.6-38.3l-9.6,0.8v191.9l-14.3-16v0.4c-2.3-14.5-15.6-34.6-39.9-59.8c-9.6-7.6-20.7-13.3-33.6-17.2
		s-27-6.1-42-6.8l-27.4-39.9c7.8-8.4,17.6-17.8,29.3-28.3c11.7-10.4,24.6-21.5,38.9-33.2c-5.5-4.5-11.5-8.4-17.4-11.9
		c-5.9-3.3-12.7-6.1-20.1-8.4c-9-3.1-17-5.5-23.8-7.6c-7-2-11.7-3.7-14.1-5.1c-12.9-6.1-27.2-18.2-43-36.2h289.2l23.1,23.6
		L1766.6,853L1766.6,853z"/>
</g>
<g>
	
		<linearGradient id="SVGID_8_" gradientUnits="userSpaceOnUse" x1="212.9" y1="1882.7" x2="392.6001" y2="1882.7" gradientTransform="matrix(2.048 0 0 -2.048 0 4194.3042)">
		<stop  offset="0" style="stop-color:#CCFF97"/>
		<stop  offset="1" style="stop-color:#8DFF51"/>
	</linearGradient>
	<path fill="url(#SVGID_8_)" d="M804,223.2H689.8v41c4.3-0.8,10.2-1.2,17.6-1.2c19,0,35.8,6.1,50.6,18.4
		c14.3,12.7,21.5,28.1,21.5,46.1c-0.6,13.1-3.7,23.8-9,31.3c-5.3,7.8-12.9,12.5-22.1,14.3c-9.6-0.2-18.2-2.7-26-6.8
		c-7.6-4.3-12.1-10.6-13.7-19c-0.2-7.6,1.8-13.9,6.3-18.6c4.5-4.9,9.6-7.2,15.2-7.2c10.9-0.6,20.5,4.5,29.1,15.4
		c2.7-4.7,3.9-9.4,3.9-14.5c0-9.4-6.3-17.2-19.3-23.3c-9.4-3.9-19.7-5.7-30.7-5.7c-8.6,0-15.8,1.2-21.9,3.5v181.7l-11.5-13.1v0.4
		c-4.9-14.1-9.2-25.6-12.5-34.6c-3.3-9-6.1-15.4-8.6-19.7v0.4c-10-17.6-24-30.7-42.2-39.1c-5.5,16.2-16.8,24.2-33.8,24.2
		c-8.8,0-16.4-3.1-22.7-9c-6.3-5.9-9.4-13.5-9.4-22.7c0-10.9,4.3-19.3,12.7-25c8.4-5.9,18.4-8.2,29.9-7c1.8-4.3,2.7-9,2.7-14.1
		c0-9.6-3.3-18.2-10-25.8c-6.8-7.6-15-11.3-24.6-11.3c-2.3,0-4.5,0.6-6.6,1.6c-2,1-4.3,2.5-6.6,4.1c0,8.6-3.1,16-9.4,22.7
		c-6.3,6.6-13.7,9.8-22.1,9.8c-9.4,0-17.6-3.1-24.6-9.2c-7-6.1-10.4-15.4-10-27.6c1.4-13.1,9-22.9,22.9-29.1c4.7-1.4,9-2.3,13.1-2.7
		l0.8-3.1c0-1.8-0.8-3.9-2.3-6.6c-1.4-2.7-3.3-5.1-5.3-7.8c-2-2.5-4.3-4.7-6.6-6.8s-4.3-3.5-6.1-4.3h-36.9L436,198.7h343L804,223.2z
		 M666.4,396.5V298c-19.3-1.8-36.9-9.6-52.2-23.8c-14.7-14.3-23.3-31.3-26-51h-63.3c1.4,2.9,3.3,6.6,5.3,11.1c2,4.3,4.3,10,6.6,16.8
		c3.5,0.8,6.3,1.8,8.8,2.7c2.3,0.8,4.7,1.8,7,2.7c8.8,3.3,17.4,7.8,25.8,13.7c8.4,5.9,16,12.7,23.1,20.7c6.8,8.6,12.1,17.6,16,27.2
		c3.9,9.6,6.1,19.3,6.8,29.1c19.7,12.7,33.4,29.1,41.4,49.8h0.8L666.4,396.5L666.4,396.5z M666,266.9v-43.6h-47.9
		c-4.1,0-6.1,3.9-6.1,11.5c0,21.9,13.7,33,41.4,33c2,0,4.1,0,5.9,0C661.1,267.7,663.3,267.5,666,266.9z"/>
</g>
</svg>
