<?xml version="1.0" encoding="utf-8"?>
<!-- Generator: Adobe Illustrator 18.0.0, SVG Export Plug-In . SVG Version: 6.00 Build 0)  -->
<!DOCTYPE svg PUBLIC "-//W3C//DTD SVG 1.1//EN" "http://www.w3.org/Graphics/SVG/1.1/DTD/svg11.dtd">
<svg version="1.1" id="Layer_1" xmlns="http://www.w3.org/2000/svg" xmlns:xlink="http://www.w3.org/1999/xlink" x="0px" y="0px"
	 viewBox="0 0 800 500" enable-background="new 0 0 800 500" xml:space="preserve">
<path fill="#FFFFFF" d="M152.6,251.6c-8.3,0.8-17.5,1.8-27.6,3c0.3-0.1-70,8.1-81.8-41.7c0,0-8-22.7-23.9-14.8
	c-16,7.9-6.8,26.6-3.8,33.7c3,7.1,38.8,60.5,69.2,65c9.3,1.4,20.6,0.3,32.1-2c1.7-2.4,3.4-4.8,5.1-7.2
	C131.3,274.9,141.7,262.8,152.6,251.6z"/>
<path fill="#FFFFFF" d="M324.6,402l-3.7-1.2l-1.2-3.7c-5.5-16.9-21.4-27.3-40.6-33.8c0.1,1.8,0,3.8-0.3,5.9c0,0-56.8-7.7-70.6,30.2
	c-13.8,37.9,16.3,52.6,31,52c14.7-0.5,51.5-3.9,72.7-38.8c0,0,18.8,5.1,35.5,17.4c16,11.8,21.6,18,18.2,26.2h-25.2l12.7,25.2
	l25.6-13.7c0,0,16.8-22-16.7-62.3c-3.2,0.5-6.5,0.8-10.1,0.8C337.7,406.3,325.1,402.2,324.6,402z M249.5,422.7
	c-12.5-3.1-16.6-19.2,1.7-26.6c18.3-7.4,33.7,7.3,33.7,7.3C274.4,423.3,262.1,425.8,249.5,422.7z"/>
<path fill="#FFFFFF" d="M500.3,237.1c-2.9-7.9-8.3-18.7-18.3-29.7c-8.1,12-15.7,24.8-22.6,38.2c-0.9,1.8-1.9,3.7-2.8,5.6
	c3.2,6.5,5.8,13.7,6.7,21.2c0,0-0.5,6.2-13.3-0.2c-4.2-2.1-7-3.5-8.8-4.5c-3.4-1.8-3.6-2.1-3.6-2.1c0,0-17.9-18.2-36.7-4.3
	c-18.8,13.9-29,38.1-4.8,50.1c0,0,16.1,5.2,36.7,5.3c10.3,0,21.8-1.2,33-5.1c0,0,30.7-10.7,37.1-41.7
	C505.2,259.5,504,247.2,500.3,237.1z"/>
<path fill="#FFFFFF" d="M514.5,355.3c-12.7,0.4-26.1-0.8-39.9,23.4c-8.9,15.7-12.4,13.1-12.4,13.1s-9.5-0.3-20.9-31.6
	c-4.7-12.7-7-24.8-7.9-35.8l-0.5,0c-21.5-0.1-38.3-5.4-39-5.7l-1-0.4c-4.4-2.2-7.8-4.7-10.4-7.3c5,47.9,32.7,76.1,32.7,76.1
	c38.9,37.9,84.8,43.8,109.5,27.6c24.7-16.2,27.8-35.8,25.6-47.3C548,356,527.3,354.9,514.5,355.3z"/>
<path fill="#FFFFFF" d="M104.2,141.4l-0.8-0.9l-0.5-1.1c-1.3-2.7-2.5-5.6-3.3-8.6c-0.2-0.8-0.4-1.5-0.6-2.3l-12.3-0.2
	c0,0-3.3,17,0,31c0,0,16.8-0.7,34-1.5C112.8,150.5,104.6,141.9,104.2,141.4z"/>
<g>
	<g>
		<path fill="#FFFFFF" d="M279.1,258.3c0,0-2.7-16.4-4.9-38.1l-0.1,0.1l-0.7-8.7c-1-11.3-1.7-23.4-1.9-35.2c0-2.9,0-5.8,0-8.7
			c-0.1,0-0.1,0-0.2,0c-15.5-0.8-35.4-1.9-37.3-2l-1,34.3l-0.1,3.6c0,0,0,30.4,0.3,44c0,2.7,0.1,4.8,0.2,5.8c0,0,0,0-0.1-0.1
			c0,1,0,1.9,0.1,2.4l0.1,3.1l-2,2.3c-3.2,3.7-6.4,7.5-9.4,11.2c13,3.1,24.2,11.9,26.5,32.4l38.6,0.5
			C287.2,305.1,302.9,277.8,279.1,258.3z"/>
		<path fill="#FFFFFF" d="M274,126l0.5,0c2.8-30.1,5.6-55.1,6.5-65.7c1.1-13.7-0.5-44.3-39-42c-37,2.2-151.9,52.7-135,110.3
			c0.7,2.4,1.6,4.9,2.9,7.4c0,0,13,13.6,21.6,21.5c3.2,2.9,5.8,5,7,5.5c4.5,1.6,22,11.9,40.6-2.5c2.5-2,4.9-4.1,7.2-6.3
			c7.3-7.4,12.4-15.9,12.4-23.7c0-7.3-4.5-13.9-15.9-18.3c0,0-15.4-3.6-37.1,0.2l-2.6-3c0,0,9.7-31.2,75.8-40.4
			c0,0,18.2-4.2,17.9,13.5c-0.1,9.1-0.8,27.7-1.3,42.3c0,0,0.1,0,0.1,0C250.3,125.3,263.2,125.8,274,126z"/>
	</g>
</g>
<path fill="#FFFFFF" d="M469.8,151.3 M469.8,151.3 M469.8,151.3c-9.7,7.8-19.7,18-26.7,25.8c-5.8,6.4-9.6,11-9.6,11
	c-5.9,6.4-11,12.7-15.6,18.8c-15.8,21.1-24.7,40.3-29.7,55.5c2.5-2.6,5.3-5,8.3-7.3c6.1-4.5,12.7-6.8,19.7-6.8
	c13.8,0,24.3,9.1,26.7,11.4c0.3,0.2,0.8,0.5,1.6,0.9c2.6-5.9,5.4-11.5,8.1-16.9c8.3-16.2,16.7-30,24.6-41.3
	c22.7-32.8,55.3-61.4,96.1-66.4c9.9-0.7,11.2-19.6,10.6-27c-0.6-7.4-6.4-9.3-6.4-9.3C536,100.7,500.9,126.5,469.8,151.3"/>
<g>
	<path fill="#FFFFFF" d="M465,145.2c6.3-5,12.7-10,19.2-14.9h-10.7v0.1c0,0,0,0,0,0v0c-10,0.2-70,1.5-102.7,9.6
		c0,0-15.5-10.5-51.8,0c0,0-5.4-5.4-41.6-6.2c-1.2,0-2.4-0.1-3.6-0.1c-12.2-0.3-25.9-0.9-38.7-1.5c-10.8-0.5-20.9-1-28.8-1.5
		c-0.1,7.6-3.7,16-10.3,24c38.2,2.7,38.3,3,38.3,3s21.1,1.2,37.4,2c11.4,0.6,21.5,1.2,23.4,1.8c0,0-6.6,4.1-15.9,9.9
		c-0.1,0.9-0.1,1.4,0,4.7c0.1,9.1,0.6,19.2,1.5,30.1c13.8-9.3,28.8-17.4,45-23c0,0-27.4,109.4-4.8,154.6c0,0-75.6-34.3-131.5-32.9
		c0,0,8.4-14.7,23.7-34.2c3.7-4.8,7.9-9.8,12.5-15c0-1.2-0.1-3.7-0.1-6l0-2.3c-0.2-12-0.3-37.4-0.3-43c-0.3,0.2-0.6,0.3-0.8,0.5
		c-11.2,6.6-34.2,20.6-59.8,45.4c-11.9,11.5-24.3,25.3-36.4,41.8c-5.1,7-10.2,14.4-15.1,22.4c0,0,10.4,15.8,40.4,34.4
		c0,0,151.9-21.2,173.5,45.6c0,0,47.6,15.8,57.7-16.1c0,0-12.3-9-22.7-46.3c0,0-8.3-82.2,8.1-150.1c0,0,19.5,5.8,40.6,19.7
		c0.3-0.4,0.6-0.9,0.9-1.3c5-6.6,10.3-13.1,16-19.2c0.6-0.8,3.4-4.1,7.5-8.7c-11.5-6-23.9-11.4-37.8-17c0,0-0.5-2.9,19.7-3.7
		c11.4-0.4,28.2-0.6,40.8-0.7C460.2,149.2,462.6,147.2,465,145.2L465,145.2z"/>
	<path fill="#FFFFFF" d="M742.1,396.5V165.7h37.7v-35.3h-80.8v31.5c-2.9,1.9-6.9-1.7-6.9-1.7s-23.7-33-55.4-30.6
		c-31.6,2.4-54.1,36.5-54.1,36.5c-5.7-8-14.5-15.2-21.1-20c-13.7,3.6-26,9.9-36.9,17.6h4.3c36.8,8.7,31.5,41.7,31.5,41.7
		c0.9,31.2-31,31.7-31,31.7h-21.1c3.5,11.1,4.4,23.7,2.2,34.5c-0.8,4-2,7.8-3.5,11.2l1,3.1h42.5c28.1-4.5,32.4-26.3,32.4-26.3
		l7,11.4c11.5,16.7,27.5,16.7,27.5,16.7H649l15.8-49.3c-72.6,5.9-61.7-38.2-61.7-38.2c-3-26.8,26.5-35,26.5-35
		c54.8-12.5,69.4,48.2,69.4,48.2v227.9h57l26.7-45H742.1z"/>
</g>
</svg>
